<?xml version="1.0" encoding="utf-8"?>
<!-- Generator: Adobe Illustrator 23.0.3, SVG Export Plug-In . SVG Version: 6.00 Build 0)  -->
<svg version="1.1" id="Layer_1" xmlns="http://www.w3.org/2000/svg" xmlns:xlink="http://www.w3.org/1999/xlink" x="0px" y="0px"
	 viewBox="0 0 262 262" style="enable-background:new 0 0 262 262;" xml:space="preserve">
<style type="text/css">
	.st0{fill:#A8FF37;}
	.st1{fill:#E6E6E6;}
	.st2{fill:#FFFFFF;}
	.st3{fill:#454546;}
	.st4{fill:#303031;}
	.st5{fill:#555658;}
	.st6{fill:#E6E9ED;}
	.st7{fill:#FFE42B;}
	.st8{fill:#FF1298;}
	.st9{fill:#23BDCC;}
</style>
<g>
	<rect x="47.5" y="45.6" class="st0" width="170.9" height="170.9"/>
	<g>
		<g>
			<g>
				<path class="st1" d="M135,120.5c0-8.2-2.1-14.5-9.1-19.3c-7.1-4.9-21.8-4-22.3-15.1c-0.1-2.2-3.5-2.2-3.4,0
					c0.3,8.5,6.6,11.6,13.9,13.9c5.3,1.7,10.1,3.3,14,7.5c3.3,3.6,3.5,8.5,3.5,13C131.6,122.7,134.9,122.7,135,120.5L135,120.5z"/>
			</g>
			<path class="st2" d="M125.9,101.2c-7.1-4.9-21.8-4-22.3-15.1c-0.1-1.5-1.6-1.9-2.6-1.4c0.5,0.2,0.9,0.7,0.9,1.4
				c0.5,11.1,14,11.2,21.6,15.5c8,4.5,9.8,10.7,9.8,18.9c0,0.7-0.4,1.2-0.8,1.4c1,0.5,2.5,0,2.6-1.4
				C135,112.4,132.9,106.1,125.9,101.2z"/>
			<path class="st3" d="M135.1,127.3v-0.9h2.1l-0.1-1.8h-2v-0.9h1.9l-0.1-1.7h-1.8v-0.9h1.7l-0.2-2.4c0-0.5-0.5-1-1-1h-4.7
				c-0.5,0-1,0.4-1,1l-0.2,2.4h1.6v0.9h-1.6l-0.1,1.7h1.8v0.9h-1.9l-0.1,1.8h2v0.9h-2.1l-0.2,2c0,0.5,0.4,1,0.9,1h6.6
				c0.5,0,0.9-0.4,0.9-1l-0.2-2H135.1z"/>
			<polygon class="st4" points="156.5,162.8 109.4,162.8 109.5,129.7 153.2,129.7 			"/>
			<path class="st5" d="M131.9,146.5c0,0.3-0.2,0.5-0.5,0.5l-3.9,0c-0.3,0-0.5-0.2-0.5-0.5l0-0.5c0-0.3,0.2-0.5,0.5-0.5l3.9,0
				c0.3,0,0.5,0.2,0.5,0.5L131.9,146.5z"/>
			<path class="st5" d="M139.5,146.5c0,0.3-0.2,0.5-0.5,0.5l-3.9,0c-0.3,0-0.5-0.2-0.5-0.5l0-0.5c0-0.3,0.2-0.5,0.5-0.5l3.9,0
				c0.3,0,0.5,0.2,0.5,0.5L139.5,146.5z"/>
		</g>
		<g>
			<path class="st4" d="M88.9,142.1c0,0-4.7,19-5.6,23.1c-0.9,4-0.2,6.7,3.2,9.9c3.4,3.2,9.9,2.7,11.1,1.5
				c1.2-1.2,20.5-21.8,20.5-21.8L88.9,142.1z"/>
			<path class="st3" d="M111.6,132.2c0,1.1-0.9,2-2,2l-9.5,0c-1.1,0-2-0.9-2-2l0-9.6c0-1.1,0.9-2,2-2h9.5c1.1,0,2,0.9,2,2
				L111.6,132.2z"/>
			<path class="st4" d="M113.4,138.6c0,1.4-1.2,2.6-2.6,2.6l-12,0c-1.4,0-2.6-1.2-2.6-2.6l0-12.2c0-1.4,1.1-2.6,2.6-2.6l12,0
				c1.4,0,2.6,1.1,2.6,2.6L113.4,138.6z"/>
			<g>
				<path class="st6" d="M121.2,146.7c0,9-7.3,16.3-16.3,16.3c-9,0-16.3-7.3-16.3-16.3c0-9,7.3-16.3,16.3-16.3
					C113.9,130.5,121.2,137.7,121.2,146.7z"/>
				<path class="st5" d="M121.2,145c0,9-7.3,16.3-16.3,16.3c-9,0-16.3-7.3-16.3-16.3c0-9,7.3-16.3,16.3-16.3
					C113.9,128.8,121.2,136.1,121.2,145z"/>
				<path class="st4" d="M120.2,145c0,8.4-6.8,15.3-15.3,15.2c-8.4,0-15.3-6.8-15.3-15.3c0-8.4,6.8-15.2,15.3-15.2
					C113.4,129.8,120.2,136.6,120.2,145z"/>
			</g>
			<g>
				<path class="st2" d="M104.4,141.9c0.3,0.2,0.7,0.2,1,0l2.1-1.3c0.3-0.2,0.5-0.6,0.5-0.9V136c0-0.3-0.3-0.6-0.6-0.6h-4.9
					c-0.3,0-0.6,0.3-0.6,0.6l0,3.8c0,0.3,0.2,0.7,0.5,0.9L104.4,141.9z"/>
				<path class="st2" d="M105.4,147c-0.3-0.2-0.7-0.2-1,0l-2,1.2c-0.3,0.2-0.5,0.6-0.5,0.9l0,3.8c0,0.3,0.3,0.6,0.6,0.6l4.9,0
					c0.3,0,0.6-0.3,0.6-0.6l0-3.8c0-0.3-0.2-0.7-0.5-0.9L105.4,147z"/>
				<path class="st2" d="M102.4,143.9l-1.2-2.1c-0.2-0.3-0.6-0.5-0.9-0.5l-3.8,0c-0.3,0-0.6,0.3-0.6,0.6l0,4.9
					c0,0.3,0.3,0.6,0.6,0.6l3.8,0c0.3,0,0.7-0.2,0.9-0.5l1.2-2C102.6,144.6,102.6,144.1,102.4,143.9z"/>
				<path class="st2" d="M113.4,141.3h-3.8c-0.3,0-0.7,0.2-0.9,0.5l-1.3,2.1c-0.2,0.3-0.2,0.7,0,1l1.2,2c0.2,0.3,0.6,0.5,0.9,0.5
					l3.8,0c0.3,0,0.6-0.3,0.6-0.6l0-4.9C114,141.5,113.7,141.3,113.4,141.3z"/>
			</g>
		</g>
		<g>
			<path class="st4" d="M176.9,142.1c0,0,4.7,19,5.6,23.1c1,4,0.2,6.7-3.2,9.9c-3.4,3.2-9.9,2.7-11.1,1.5
				c-1.2-1.2-20.5-21.8-20.5-21.8L176.9,142.1z"/>
			<path class="st3" d="M154.3,132.2c0,1.1,0.9,2,2,2l9.5,0c1.1,0,2-0.9,2-2l0-9.6c0-1.1-0.9-2-2-2h-9.5c-1.1,0-2,0.9-2,2
				L154.3,132.2z"/>
			<path class="st4" d="M152.4,138.6c0,1.4,1.2,2.6,2.6,2.6l12,0c1.4,0,2.6-1.2,2.6-2.6l0-12.2c0-1.4-1.2-2.6-2.6-2.6l-12,0
				c-1.4,0-2.6,1.1-2.6,2.6L152.4,138.6z"/>
		</g>
		<g>
			<path class="st6" d="M144.6,146.7c0,9,7.3,16.3,16.3,16.3c9,0,16.3-7.3,16.3-16.3c0-9-7.3-16.3-16.3-16.3
				C151.9,130.5,144.6,137.7,144.6,146.7z"/>
			<path class="st5" d="M144.6,145c0,9,7.3,16.3,16.3,16.3c9,0,16.3-7.3,16.3-16.3c0-9-7.3-16.3-16.3-16.3
				C151.9,128.8,144.6,136.1,144.6,145z"/>
			<path class="st4" d="M145.6,145c0,8.4,6.8,15.3,15.3,15.2c8.4,0,15.3-6.8,15.3-15.3c0-8.4-6.8-15.2-15.3-15.2
				C152.5,129.8,145.6,136.6,145.6,145z"/>
			<path class="st4" d="M164.3,151.6c0,2-1.6,3.6-3.6,3.6c-2,0-3.6-1.6-3.6-3.6c0-2,1.6-3.6,3.6-3.6
				C162.7,148,164.3,149.6,164.3,151.6z"/>
			<path class="st4" d="M164.3,137.1c0,2-1.6,3.6-3.6,3.6c-2,0-3.6-1.6-3.6-3.6c0-2,1.6-3.6,3.6-3.6
				C162.7,133.5,164.3,135.1,164.3,137.1z"/>
			<path class="st4" d="M167.9,140.6c2,0,3.6,1.6,3.6,3.6c0,2-1.6,3.6-3.6,3.6c-2,0-3.6-1.6-3.6-3.6
				C164.3,142.2,166,140.6,167.9,140.6z"/>
			<path class="st4" d="M153.4,140.6c2,0,3.6,1.6,3.6,3.6c0,2-1.6,3.6-3.6,3.6c-2,0-3.6-1.6-3.6-3.6
				C149.8,142.2,151.4,140.6,153.4,140.6z"/>
		</g>
		<g>
			<path class="st7" d="M163.9,151.2c0,1.8-1.5,3.3-3.3,3.3c-1.8,0-3.3-1.5-3.3-3.3c0-1.8,1.5-3.3,3.3-3.3
				C162.5,147.9,163.9,149.4,163.9,151.2z"/>
			<path class="st6" d="M163.9,136.7c0,1.8-1.4,3.2-3.2,3.2c-1.8,0-3.2-1.4-3.2-3.2c0-1.8,1.4-3.2,3.2-3.2
				C162.5,133.5,163.9,134.9,163.9,136.7z"/>
			<path class="st8" d="M167.9,140.5c1.8,0,3.3,1.5,3.3,3.3c0,1.8-1.5,3.3-3.3,3.3c-1.8,0-3.3-1.5-3.3-3.3
				C164.7,142,166.1,140.5,167.9,140.5z"/>
			<path class="st9" d="M153.4,140.6c1.8,0,3.2,1.4,3.2,3.2c0,1.8-1.5,3.2-3.2,3.2c-1.8,0-3.2-1.5-3.2-3.2
				C150.2,142,151.6,140.5,153.4,140.6z"/>
		</g>
	</g>
</g>
</svg>
