<?xml version="1.0" encoding="utf-8"?>
<!-- Generator: Adobe Illustrator 23.0.3, SVG Export Plug-In . SVG Version: 6.00 Build 0)  -->
<svg version="1.1" id="Layer_1" xmlns="http://www.w3.org/2000/svg" xmlns:xlink="http://www.w3.org/1999/xlink" x="0px" y="0px"
	 viewBox="0 0 262 262" style="enable-background:new 0 0 262 262;" xml:space="preserve">
<style type="text/css">
	.st0{fill:#9149FF;}
	.st1{fill:#303031;}
	.st2{fill:#FFFFFF;}
	.st3{fill:#CCCCCC;}
	.st4{fill:#FF1298;}
	.st5{fill:#FFE42B;}
	.st6{fill:#7AC943;}
	.st7{fill:#23BDCC;}
	.st8{fill:#555658;}
</style>
<polyline class="st0" points="49.5,211.5 49.5,40.6 220.4,40.6 220.4,211.5 "/>
<g>
	<path class="st1" d="M179.7,124.3c0,0.3,0,1.6,0,3.5c-2.1,0-87.6,0-89.6,0c0-2,0-3.2,0-3.5c0-11,0-43.7,0-45.4c2.1,0,87.6,0,89.6,0
		C179.7,80.6,179.7,113.3,179.7,124.3z"/>
	<path class="st2" d="M179.7,173.2c-2.1,0-87.6,0-89.6,0c0-1.6,0-30.6,0-43.2h89.6C179.7,142.6,179.7,171.6,179.7,173.2z"/>
	<path class="st2" d="M180.8,76.8H88v45.4v7.8v45.4h93.9V130v-7.8V76.8H180.8z M179.7,173.2c-2.1,0-87.6,0-89.6,0
		c0-1.6,0-30.6,0-43.2h89.6C179.7,142.6,179.7,171.6,179.7,173.2z M179.7,124.3c0,0.3,0,1.6,0,3.5c-2.1,0-87.6,0-89.6,0
		c0-2,0-3.2,0-3.5c0-11,0-43.7,0-45.4c2.1,0,87.6,0,89.6,0C179.7,80.6,179.7,113.3,179.7,124.3z"/>
	<polygon class="st1" points="154.3,135.5 153.2,135.5 115.5,135.5 115.5,166.4 154.3,166.4 	"/>
	<path class="st2" d="M156.8,85.2h-1h-42.7v35.6h43.7V85.2z M154.6,118.6h-39.4V87.4h39.4V118.6z"/>
	<polygon class="st3" points="100,159.3 105.4,159.3 105.4,153.6 111.1,153.6 111.1,148.3 105.4,148.3 105.4,142.5 100,142.5 
		100,148.3 94.3,148.3 94.3,153.6 100,153.6 	"/>
	<g>
		<path class="st4" d="M168.1,159.8c1.5,0,2.7-1.2,2.7-2.7c0-1.5-1.2-2.7-2.7-2.7c-1.5,0-2.7,1.2-2.7,2.7
			C165.4,158.6,166.6,159.8,168.1,159.8z"/>
		<path class="st5" d="M168.1,147.5c1.5,0,2.7-1.2,2.7-2.7c0-1.5-1.2-2.7-2.7-2.7c-1.5,0-2.7,1.2-2.7,2.7
			C165.4,146.3,166.6,147.5,168.1,147.5z"/>
		<path class="st6" d="M161.9,153.7c1.5,0,2.7-1.2,2.7-2.7c0-1.5-1.2-2.7-2.7-2.7c-1.5,0-2.7,1.2-2.7,2.7
			C159.2,152.5,160.4,153.7,161.9,153.7z"/>
		<path class="st7" d="M174.3,153.7c1.5,0,2.7-1.2,2.7-2.7c0-1.5-1.2-2.7-2.7-2.7c-1.5,0-2.7,1.2-2.7,2.7
			C171.5,152.5,172.7,153.7,174.3,153.7z"/>
	</g>
	<g>
		<path class="st8" d="M108,112.3c0.5,0,0.9-0.4,0.9-0.9c0-0.5-0.4-0.9-0.9-0.9c-0.5,0-0.9,0.4-0.9,0.9
			C107.2,111.9,107.6,112.3,108,112.3z"/>
		<path class="st8" d="M103.8,112.3c0.5,0,0.9-0.4,0.9-0.9c0-0.5-0.4-0.9-0.9-0.9c-0.5,0-0.9,0.4-0.9,0.9
			C102.9,111.9,103.3,112.3,103.8,112.3z"/>
		<path class="st8" d="M99.5,112.3c0.5,0,0.9-0.4,0.9-0.9c0-0.5-0.4-0.9-0.9-0.9c-0.5,0-0.9,0.4-0.9,0.9
			C98.7,111.9,99.1,112.3,99.5,112.3z"/>
		<path class="st8" d="M95.3,112.3c0.5,0,0.9-0.4,0.9-0.9c0-0.5-0.4-0.9-0.9-0.9c-0.5,0-0.9,0.4-0.9,0.9
			C94.4,111.9,94.8,112.3,95.3,112.3z"/>
		<path class="st8" d="M108,116.6c0.5,0,0.9-0.4,0.9-0.9c0-0.5-0.4-0.9-0.9-0.9c-0.5,0-0.9,0.4-0.9,0.9
			C107.2,116.2,107.6,116.6,108,116.6z"/>
		<path class="st8" d="M103.8,116.6c0.5,0,0.9-0.4,0.9-0.9c0-0.5-0.4-0.9-0.9-0.9c-0.5,0-0.9,0.4-0.9,0.9
			C102.9,116.2,103.3,116.6,103.8,116.6z"/>
		<path class="st8" d="M99.5,116.6c0.5,0,0.9-0.4,0.9-0.9c0-0.5-0.4-0.9-0.9-0.9c-0.5,0-0.9,0.4-0.9,0.9
			C98.7,116.2,99.1,116.6,99.5,116.6z"/>
		<path class="st8" d="M95.3,116.6c0.5,0,0.9-0.4,0.9-0.9c0-0.5-0.4-0.9-0.9-0.9c-0.5,0-0.9,0.4-0.9,0.9
			C94.4,116.2,94.8,116.6,95.3,116.6z"/>
		<path class="st8" d="M108,120.8c0.5,0,0.9-0.4,0.9-0.9c0-0.5-0.4-0.9-0.9-0.9c-0.5,0-0.9,0.4-0.9,0.9
			C107.2,120.4,107.6,120.8,108,120.8z"/>
		<path class="st8" d="M103.8,120.8c0.5,0,0.9-0.4,0.9-0.9c0-0.5-0.4-0.9-0.9-0.9c-0.5,0-0.9,0.4-0.9,0.9
			C102.9,120.4,103.3,120.8,103.8,120.8z"/>
		<path class="st8" d="M99.5,120.8c0.5,0,0.9-0.4,0.9-0.9c0-0.5-0.4-0.9-0.9-0.9c-0.5,0-0.9,0.4-0.9,0.9
			C98.7,120.4,99.1,120.8,99.5,120.8z"/>
		<path class="st8" d="M95.3,120.8c0.5,0,0.9-0.4,0.9-0.9c0-0.5-0.4-0.9-0.9-0.9c-0.5,0-0.9,0.4-0.9,0.9
			C94.4,120.4,94.8,120.8,95.3,120.8z"/>
	</g>
	<g>
		<path class="st8" d="M161.8,112.3c0.5,0,0.9-0.4,0.9-0.9c0-0.5-0.4-0.9-0.9-0.9c-0.5,0-0.9,0.4-0.9,0.9
			C160.9,111.9,161.3,112.3,161.8,112.3z"/>
		<path class="st8" d="M166.1,112.3c0.5,0,0.9-0.4,0.9-0.9c0-0.5-0.4-0.9-0.9-0.9c-0.5,0-0.9,0.4-0.9,0.9
			C165.2,111.9,165.6,112.3,166.1,112.3z"/>
		<path class="st8" d="M170.3,112.3c0.5,0,0.9-0.4,0.9-0.9c0-0.5-0.4-0.9-0.9-0.9c-0.5,0-0.9,0.4-0.9,0.9
			C169.4,111.9,169.8,112.3,170.3,112.3z"/>
		<path class="st8" d="M174.6,112.3c0.5,0,0.9-0.4,0.9-0.9c0-0.5-0.4-0.9-0.9-0.9c-0.5,0-0.9,0.4-0.9,0.9
			C173.7,111.9,174.1,112.3,174.6,112.3z"/>
		<path class="st8" d="M161.8,116.6c0.5,0,0.9-0.4,0.9-0.9c0-0.5-0.4-0.9-0.9-0.9c-0.5,0-0.9,0.4-0.9,0.9
			C160.9,116.2,161.3,116.6,161.8,116.6z"/>
		<path class="st8" d="M166.1,116.6c0.5,0,0.9-0.4,0.9-0.9c0-0.5-0.4-0.9-0.9-0.9c-0.5,0-0.9,0.4-0.9,0.9
			C165.2,116.2,165.6,116.6,166.1,116.6z"/>
		<path class="st8" d="M170.3,116.6c0.5,0,0.9-0.4,0.9-0.9c0-0.5-0.4-0.9-0.9-0.9c-0.5,0-0.9,0.4-0.9,0.9
			C169.4,116.2,169.8,116.6,170.3,116.6z"/>
		<path class="st8" d="M174.6,116.6c0.5,0,0.9-0.4,0.9-0.9c0-0.5-0.4-0.9-0.9-0.9c-0.5,0-0.9,0.4-0.9,0.9
			C173.7,116.2,174.1,116.6,174.6,116.6z"/>
		<path class="st8" d="M161.8,120.8c0.5,0,0.9-0.4,0.9-0.9c0-0.5-0.4-0.9-0.9-0.9c-0.5,0-0.9,0.4-0.9,0.9
			C160.9,120.4,161.3,120.8,161.8,120.8z"/>
		<path class="st8" d="M166.1,120.8c0.5,0,0.9-0.4,0.9-0.9c0-0.5-0.4-0.9-0.9-0.9c-0.5,0-0.9,0.4-0.9,0.9
			C165.2,120.4,165.6,120.8,166.1,120.8z"/>
		<path class="st8" d="M170.3,120.8c0.5,0,0.9-0.4,0.9-0.9c0-0.5-0.4-0.9-0.9-0.9c-0.5,0-0.9,0.4-0.9,0.9
			C169.4,120.4,169.8,120.8,170.3,120.8z"/>
		<path class="st8" d="M174.6,120.8c0.5,0,0.9-0.4,0.9-0.9c0-0.5-0.4-0.9-0.9-0.9c-0.5,0-0.9,0.4-0.9,0.9
			C173.7,120.4,174.1,120.8,174.6,120.8z"/>
	</g>
	<g>
		<path class="st7" d="M130.8,101.6v-0.9H130h-0.9v0.9v0.9h0.9v0.9h-0.9h-0.9v-0.9h-0.9v-0.9v-0.9v-0.9h0.9V99h0.9h0.9v-0.9h-0.9
			v-0.9h-0.9h-0.9v-0.9h-0.9h-0.9h-0.9h-0.9v0.9H123h-0.9v0.9h-0.9V99h-0.9v0.9v0.9v0.9h-0.9v0.9v0.9v0.9v0.9v0.9v0.9v0.9v0.9h0.9
			v-0.9h0.9v-0.9h0.9v0.9h0.9v0.9h0.9h0.9v-0.9v-0.9h0.9h0.9v0.9v0.9h0.9h0.9v-0.9h0.9v-0.9h0.9v0.9h0.9v0.9h0.9v-0.9v-0.9V106v-0.9
			v-0.9v-0.9v-0.9v-0.9H130.8z M125.6,100.8h-0.9h-0.9v0.9v0.9h0.9v0.9h-0.9H123v-0.9h-0.9v-0.9v-0.9v-0.9h0.9V99h0.9h0.9v0.9h0.9
			V100.8z"/>
	</g>
	<polygon class="st5" points="146.2,107.8 141.5,107.8 141.5,106.9 139.7,106.9 139.7,106 138.7,106 138.7,104.1 140.6,104.1 
		140.6,103.2 143.4,103.2 143.4,102.2 146.2,102.2 146.2,101.3 143.4,101.3 143.4,100.4 140.6,100.4 140.6,99.4 138.7,99.4 
		138.7,97.6 139.7,97.6 139.7,96.6 141.5,96.6 141.5,95.7 146.2,95.7 146.2,96.6 148.1,96.6 148.1,97.6 149,97.6 149,99.4 
		149.9,99.4 149.9,104.1 149,104.1 149,106 148.1,106 148.1,106.9 146.2,106.9 	"/>
</g>
</svg>
