<?xml version="1.0" encoding="utf-8"?>
<!-- Generator: Adobe Illustrator 23.0.3, SVG Export Plug-In . SVG Version: 6.00 Build 0)  -->
<svg version="1.1" id="Layer_1" xmlns="http://www.w3.org/2000/svg" xmlns:xlink="http://www.w3.org/1999/xlink" x="0px" y="0px"
	 viewBox="0 0 262 262" style="enable-background:new 0 0 262 262;" xml:space="preserve">
<style type="text/css">
	.st0{fill:#FFE48D;}
	.st1{fill:#FF1298;}
	.st2{fill:#303031;}
	.st3{fill:#555658;}
	.st4{fill:#FFFFFF;}
</style>
<g id="icons">
	<g>
		<rect x="45.5" y="45.5" class="st0" width="170.9" height="170.9"/>
		<g>
			<rect x="113.1" y="122.3" class="st1" width="35.7" height="23.9"/>
			<path class="st2" d="M183.3,102.1H78.7c-0.6,0-1.1,0.5-1.1,1.1v55.5c0,0.6,0.5,1.1,1.1,1.1h104.6c0.6,0,1.1-0.5,1.1-1.1v-55.5
				C184.3,102.6,183.9,102.1,183.3,102.1z M92.8,147.5h-9.6v-27.3h8.6l0,0c-3.5,3.3-5.7,8-5.7,13.2
				C86.1,139.1,88.7,144.2,92.8,147.5L92.8,147.5z M150.6,148h-39.3v-27.5h39.3V148z M178.6,147.5H169l0,0c4.1-3.4,6.7-8.4,6.7-14.1
				c0-5.2-2.2-9.9-5.6-13.2l0,0h8.6L178.6,147.5L178.6,147.5z"/>
			<path class="st3" d="M157.5,145.7c-0.6,0-1.1,0-1.7-0.1v-8.5l0,0l0,0l0,0c0.5,0.2,1.1,0.4,1.7,0.4c2.2,0,4-1.8,4-4s-1.8-4-4-4
				c-0.6,0-1.2,0.1-1.7,0.4l0,0l0,0l0,0v-8.5l0,0c0.5-0.1,1.1-0.1,1.7-0.1c6.8,0,12.3,5.5,12.3,12.3
				C169.8,140.2,164.3,145.7,157.5,145.7z"/>
			<path class="st3" d="M106,129.7L106,129.7c-0.5-0.2-1.1-0.4-1.7-0.4c-2.2,0-4,1.8-4,4s1.8,4,4,4c0.6,0,1.2-0.1,1.7-0.4v8.5
				c-0.5,0.1-1.1,0.1-1.7,0.1c-6.8,0-12.3-5.5-12.3-12.3s5.5-12.3,12.3-12.3c0.6,0,1.1,0,1.7,0.1l0,0V129.7L106,129.7L106,129.7z"/>
			<g>
				<rect x="117.2" y="127.2" class="st4" width="28.3" height="1.4"/>
				<rect x="117.2" y="138.8" class="st4" width="28.3" height="1.4"/>
				<rect x="117.2" y="133" class="st4" width="28.3" height="1.4"/>
			</g>
		</g>
	</g>
</g>
</svg>
