<?xml version="1.0" encoding="utf-8"?>
<!-- Generator: Adobe Illustrator 23.0.3, SVG Export Plug-In . SVG Version: 6.00 Build 0)  -->
<svg version="1.1" id="Layer_1" xmlns="http://www.w3.org/2000/svg" xmlns:xlink="http://www.w3.org/1999/xlink" x="0px" y="0px"
	 viewBox="0 0 262 262" style="enable-background:new 0 0 262 262;" xml:space="preserve">
<style type="text/css">
	.st0{fill:#FF1EE5;}
	.st1{fill:#303031;}
	.st2{fill:#B31E72;}
	.st3{fill:#FF1298;}
	.st4{fill:#FFE42B;}
	.st5{fill:#23BDCC;}
	.st6{fill:#242314;}
	.st7{fill:#555658;}
</style>
<g>
	<rect x="44.6" y="44.6" class="st0" width="170.9" height="170.9"/>
	<g>
		<path class="st1" d="M97.3,179.3c-0.9,0-1.6-0.7-1.6-1.6v-8.9c0-0.9,0.7-1.6,1.6-1.6h6.3c0.9,0,1.6,0.7,1.6,1.6v8.9
			c0,0.9-0.7,1.6-1.6,1.6H97.3z"/>
		<path class="st1" d="M151.2,179.3c-0.9,0-1.6-0.7-1.6-1.6v-8.9c0-0.9,0.7-1.6,1.6-1.6h6.3c0.9,0,1.6,0.7,1.6,1.6v8.9
			c0,0.9-0.7,1.6-1.6,1.6H151.2z"/>
		<g>
			<g>
				<path class="st1" d="M127,103.5c0.7,0.7,0.7,1.9,0,2.7l0,0c-0.7,0.7-1.9,0.7-2.7,0L102.2,84c-0.7-0.7-0.7-1.9,0-2.7l0,0
					c0.7-0.7,1.9-0.7,2.7,0L127,103.5z"/>
				<path class="st1" d="M126.5,103.5c-0.7,0.7-0.7,1.9,0,2.7l0,0c0.7,0.7,1.9,0.7,2.7,0L151.3,84c0.7-0.7,0.7-1.9,0-2.7l0,0
					c-0.7-0.7-1.9-0.7-2.7,0L126.5,103.5z"/>
			</g>
			<g>
				<path class="st1" d="M180.9,169.1c0,3.1-2.5,5.6-5.6,5.6H84.8c-3.1,0-5.6-2.5-5.6-5.6v-62.9c0-3.1,2.5-5.6,5.6-5.6h90.5
					c3.1,0,5.6,2.5,5.6,5.6V169.1z"/>
				<g>
					<path class="st2" d="M93.5,164.5h14.3v-57.1H93.5c-1.9,0-3.6,1.3-4.2,3v51.1C89.9,163.3,91.6,164.5,93.5,164.5z"/>
					<rect x="107.2" y="107.4" class="st3" width="18.5" height="57.1"/>
					<rect x="125.1" y="107.4" class="st4" width="18.5" height="57.1"/>
					<path class="st5" d="M154.7,164.5c2.4,0,4.4-2,4.4-4.4v-48.2c0-2.4-2-4.4-4.4-4.4H143v57.1H154.7z"/>
				</g>
			</g>
		</g>
		<g>
			<path class="st6" d="M166.9,154.9c-2,2.6-1.6,6.4,1,8.4c2.6,2,6.4,1.6,8.4-1.1c2-2.6,1.6-6.4-1.1-8.4
				C172.7,151.8,168.9,152.3,166.9,154.9z M175.4,161.5c-1.6,2.1-4.7,2.5-6.8,0.8c-2.1-1.6-2.5-4.7-0.8-6.8c1.6-2.1,4.7-2.5,6.8-0.8
				C176.7,156.4,177.1,159.4,175.4,161.5z"/>
			<path class="st7" d="M166.4,154.5c-2.2,2.9-1.7,7,1.2,9.3c2.9,2.3,7,1.7,9.3-1.1c2.2-2.9,1.7-7-1.2-9.3
				C172.8,151.1,168.6,151.6,166.4,154.5z"/>
			<path class="st1" d="M167.9,155.7c-1.6,2.1-1.2,5,0.8,6.6c2.1,1.6,5,1.2,6.6-0.8c1.6-2.1,1.2-5-0.8-6.6
				C172.5,153.2,169.5,153.6,167.9,155.7z"/>
		</g>
		<g>
			<g>
				<path class="st7" d="M167.4,118c0,0.6-0.5,1.2-1.2,1.2s-1.2-0.5-1.2-1.2c0-0.6,0.5-1.2,1.2-1.2S167.4,117.4,167.4,118z"/>
				<path class="st7" d="M170.8,118c0,0.6-0.5,1.2-1.2,1.2c-0.6,0-1.2-0.5-1.2-1.2c0-0.6,0.5-1.2,1.2-1.2
					C170.3,116.9,170.8,117.4,170.8,118z"/>
				<path class="st7" d="M174.2,118c0,0.6-0.5,1.2-1.2,1.2c-0.6,0-1.2-0.5-1.2-1.2c0-0.6,0.5-1.2,1.2-1.2
					C173.7,116.9,174.2,117.4,174.2,118z"/>
				<path class="st7" d="M177.6,118c0,0.6-0.5,1.2-1.2,1.2c-0.6,0-1.2-0.5-1.2-1.2c0-0.6,0.5-1.2,1.2-1.2
					C177,116.9,177.6,117.4,177.6,118z"/>
			</g>
			<g>
				<path class="st7" d="M167.4,114.2c0,0.6-0.5,1.2-1.2,1.2s-1.2-0.5-1.2-1.2c0-0.6,0.5-1.2,1.2-1.2S167.4,113.6,167.4,114.2z"/>
				<path class="st7" d="M170.8,114.2c0,0.6-0.5,1.2-1.2,1.2c-0.6,0-1.2-0.5-1.2-1.2c0-0.6,0.5-1.2,1.2-1.2
					C170.3,113.1,170.8,113.6,170.8,114.2z"/>
				<path class="st7" d="M174.2,114.2c0,0.6-0.5,1.2-1.2,1.2c-0.6,0-1.2-0.5-1.2-1.2c0-0.6,0.5-1.2,1.2-1.2
					C173.7,113.1,174.2,113.6,174.2,114.2z"/>
				<path class="st7" d="M177.6,114.2c0,0.6-0.5,1.2-1.2,1.2c-0.6,0-1.2-0.5-1.2-1.2c0-0.6,0.5-1.2,1.2-1.2
					C177,113.1,177.6,113.6,177.6,114.2z"/>
			</g>
			<g>
				<path class="st7" d="M167.4,121.9c0,0.6-0.5,1.2-1.2,1.2s-1.2-0.5-1.2-1.2c0-0.6,0.5-1.2,1.2-1.2S167.4,121.2,167.4,121.9z"/>
				<path class="st7" d="M170.8,121.9c0,0.6-0.5,1.2-1.2,1.2c-0.6,0-1.2-0.5-1.2-1.2c0-0.6,0.5-1.2,1.2-1.2
					C170.3,120.7,170.8,121.2,170.8,121.9z"/>
				<path class="st7" d="M174.2,121.9c0,0.6-0.5,1.2-1.2,1.2c-0.6,0-1.2-0.5-1.2-1.2c0-0.6,0.5-1.2,1.2-1.2
					C173.7,120.7,174.2,121.2,174.2,121.9z"/>
				<path class="st7" d="M177.6,121.9c0,0.6-0.5,1.2-1.2,1.2c-0.6,0-1.2-0.5-1.2-1.2c0-0.6,0.5-1.2,1.2-1.2
					C177,120.7,177.6,121.2,177.6,121.9z"/>
			</g>
			<g>
				<path class="st7" d="M167.4,125.7c0,0.6-0.5,1.2-1.2,1.2s-1.2-0.5-1.2-1.2c0-0.6,0.5-1.2,1.2-1.2S167.4,125.1,167.4,125.7z"/>
				<path class="st7" d="M170.8,125.7c0,0.6-0.5,1.2-1.2,1.2c-0.6,0-1.2-0.5-1.2-1.2c0-0.6,0.5-1.2,1.2-1.2
					C170.3,124.6,170.8,125.1,170.8,125.7z"/>
				<path class="st7" d="M174.2,125.7c0,0.6-0.5,1.2-1.2,1.2c-0.6,0-1.2-0.5-1.2-1.2c0-0.6,0.5-1.2,1.2-1.2
					C173.7,124.6,174.2,125.1,174.2,125.7z"/>
				<path class="st7" d="M177.6,125.7c0,0.6-0.5,1.2-1.2,1.2c-0.6,0-1.2-0.5-1.2-1.2c0-0.6,0.5-1.2,1.2-1.2
					C177,124.6,177.6,125.1,177.6,125.7z"/>
			</g>
			<g>
				<path class="st7" d="M167.4,129.6c0,0.6-0.5,1.2-1.2,1.2s-1.2-0.5-1.2-1.2c0-0.6,0.5-1.2,1.2-1.2S167.4,128.9,167.4,129.6z"/>
				<path class="st7" d="M170.8,129.6c0,0.6-0.5,1.2-1.2,1.2c-0.6,0-1.2-0.5-1.2-1.2c0-0.6,0.5-1.2,1.2-1.2
					C170.3,128.4,170.8,128.9,170.8,129.6z"/>
				<path class="st7" d="M174.2,129.6c0,0.6-0.5,1.2-1.2,1.2c-0.6,0-1.2-0.5-1.2-1.2c0-0.6,0.5-1.2,1.2-1.2
					C173.7,128.4,174.2,128.9,174.2,129.6z"/>
				<path class="st7" d="M177.6,129.6c0,0.6-0.5,1.2-1.2,1.2c-0.6,0-1.2-0.5-1.2-1.2c0-0.6,0.5-1.2,1.2-1.2
					C177,128.4,177.6,128.9,177.6,129.6z"/>
			</g>
			<g>
				<path class="st7" d="M167.4,133.4c0,0.6-0.5,1.2-1.2,1.2s-1.2-0.5-1.2-1.2c0-0.6,0.5-1.2,1.2-1.2S167.4,132.8,167.4,133.4z"/>
				<path class="st7" d="M170.8,133.4c0,0.6-0.5,1.2-1.2,1.2c-0.6,0-1.2-0.5-1.2-1.2c0-0.6,0.5-1.2,1.2-1.2
					C170.3,132.3,170.8,132.8,170.8,133.4z"/>
				<path class="st7" d="M174.2,133.4c0,0.6-0.5,1.2-1.2,1.2c-0.6,0-1.2-0.5-1.2-1.2c0-0.6,0.5-1.2,1.2-1.2
					C173.7,132.3,174.2,132.8,174.2,133.4z"/>
				<path class="st7" d="M177.6,133.4c0,0.6-0.5,1.2-1.2,1.2c-0.6,0-1.2-0.5-1.2-1.2c0-0.6,0.5-1.2,1.2-1.2
					C177,132.3,177.6,132.8,177.6,133.4z"/>
			</g>
			<g>
				<path class="st7" d="M167.4,137.3c0,0.6-0.5,1.2-1.2,1.2s-1.2-0.5-1.2-1.2c0-0.6,0.5-1.2,1.2-1.2S167.4,136.6,167.4,137.3z"/>
				<path class="st7" d="M170.8,137.3c0,0.6-0.5,1.2-1.2,1.2c-0.6,0-1.2-0.5-1.2-1.2c0-0.6,0.5-1.2,1.2-1.2
					C170.3,136.1,170.8,136.6,170.8,137.3z"/>
				<path class="st7" d="M174.2,137.3c0,0.6-0.5,1.2-1.2,1.2c-0.6,0-1.2-0.5-1.2-1.2c0-0.6,0.5-1.2,1.2-1.2
					C173.7,136.1,174.2,136.6,174.2,137.3z"/>
				<path class="st7" d="M177.6,137.3c0,0.6-0.5,1.2-1.2,1.2c-0.6,0-1.2-0.5-1.2-1.2c0-0.6,0.5-1.2,1.2-1.2
					C177,136.1,177.6,136.6,177.6,137.3z"/>
			</g>
			<g>
				<path class="st7" d="M167.4,141.1c0,0.6-0.5,1.2-1.2,1.2s-1.2-0.5-1.2-1.2c0-0.6,0.5-1.2,1.2-1.2S167.4,140.5,167.4,141.1z"/>
				<path class="st7" d="M170.8,141.1c0,0.6-0.5,1.2-1.2,1.2c-0.6,0-1.2-0.5-1.2-1.2c0-0.6,0.5-1.2,1.2-1.2
					C170.3,140,170.8,140.5,170.8,141.1z"/>
				<path class="st7" d="M174.2,141.1c0,0.6-0.5,1.2-1.2,1.2c-0.6,0-1.2-0.5-1.2-1.2c0-0.6,0.5-1.2,1.2-1.2
					C173.7,140,174.2,140.5,174.2,141.1z"/>
				<path class="st7" d="M177.6,141.1c0,0.6-0.5,1.2-1.2,1.2c-0.6,0-1.2-0.5-1.2-1.2c0-0.6,0.5-1.2,1.2-1.2
					C177,140,177.6,140.5,177.6,141.1z"/>
			</g>
			<g>
				<path class="st7" d="M167.4,145c0,0.6-0.5,1.2-1.2,1.2s-1.2-0.5-1.2-1.2c0-0.6,0.5-1.2,1.2-1.2S167.4,144.3,167.4,145z"/>
				<path class="st7" d="M170.8,145c0,0.6-0.5,1.2-1.2,1.2c-0.6,0-1.2-0.5-1.2-1.2c0-0.6,0.5-1.2,1.2-1.2
					C170.3,143.8,170.8,144.3,170.8,145z"/>
				<path class="st7" d="M174.2,145c0,0.6-0.5,1.2-1.2,1.2c-0.6,0-1.2-0.5-1.2-1.2c0-0.6,0.5-1.2,1.2-1.2
					C173.7,143.8,174.2,144.3,174.2,145z"/>
				<path class="st7" d="M177.6,145c0,0.6-0.5,1.2-1.2,1.2c-0.6,0-1.2-0.5-1.2-1.2c0-0.6,0.5-1.2,1.2-1.2
					C177,143.8,177.6,144.3,177.6,145z"/>
			</g>
		</g>
	</g>
</g>
</svg>
